/* XPM */
static char *_782576cac5c48529b9bc6bca9eae610vZmUhrB8PWgPFzPB[] = {
/* columns rows colors chars-per-pixel */
"64 64 7 1 ",
"  c #592835",
". c #793A4A",
"X c #744350",
"o c #6C6C6C",
"O c #974A5D",
"+ c #B95D75",
"@ c gray53",
/* pixels */
"++++OOOOOOOO........++++OOOOOOOO........    ........++++....++++",
"++++OOOOOOOO........++++OOOOOOOO........    ........++++....++++",
"++++OOOOOOOO........++++OOOOOOOO........    ........++++....++++",
"++++OOOOOOOO........++++OOOOOOOO........    ........++++....++++",
"....OOOO    ........            ....    OOOO....++++OOOO        ",
"....OOOO    ........            ....    OOOO....++++OOOO        ",
"....OOOO    ........            ....    OOOO....++++OOOO        ",
"....OOOO    ........            ....    OOOO....++++OOOO        ",
"++++........    ++++OOOOOOOO....++++    ........    @@@@++++....",
"++++........    ++++OOOOOOOO....++++    ........    @@@@++++....",
"++++........    ++++OOOOOOOO....++++    ........    @@@@++++....",
"++++........    ++++OOOOOOOO....++++    ........    @@@@++++....",
"OOOOoooo++++....    OOOO....++++OOOOOOOO....    ....++++OOOO....",
"OOOOoooo++++....    OOOO....++++OOOOOOOO....    ....++++OOOO....",
"OOOOoooo++++....    OOOO....++++OOOOOOOO....    ....++++OOOO....",
"OOOOoooo++++....    OOOO....++++OOOOOOOO....    ....++++OOOO....",
"OOOO....OOOO++++    OOOO........OOOO    ....++++....OOOO    ....",
"OOOO....OOOO++++    OOOO........OOOO    ....++++....OOOO    ....",
"OOOO....OOOO++++    OOOO........OOOO    ....++++....OOOO    ....",
"OOOO....OOOO++++    OOOO........OOOO    ....++++....OOOO    ....",
"++++    OOOOOOOO....OOOO            ........    ............++++",
"++++    OOOOOOOO....OOOO            ........    ............++++",
"++++    OOOOOOOO....OOOO            ........    ............++++",
"++++    OOOOOOOO....OOOO            ........    ............++++",
"++++............oooo........++++++++....++++++++....OOOO....OOOO",
"++++............oooo........++++++++....++++++++....OOOO....OOOO",
"++++............oooo........++++++++....++++++++....OOOO....OOOO",
"++++............oooo........++++++++....++++++++....OOOO....OOOO",
"........++++++++OOOOOOOO    ....OOOO    OOOO........@@@@OOOOOOOO",
"........++++++++OOOOOOOO    ....OOOO    OOOO........@@@@OOOOOOOO",
"........++++++++OOOOOOOO    ....OOOO    OOOO........@@@@OOOOOOOO",
"........++++++++OOOOOOOO    ....OOOO    OOOO........@@@@OOOOOOOO",
"OOOO........OOOO....OOOO        ....OOOO........OOOOOOOO    ....",
"OOOO........OOOO....OOOO        ....OOOO........OOOOOOOO    ....",
"OOOO........OOOO....OOOO        ....OOOO........OOOOOOOO    ....",
"OOOO........OOOO....OOOO        ....OOOO........OOOOOOOO    ....",
"....OOOO    ........        ........OOOO....    ++++++++....OOOO",
"....OOOO    ........        ........OOOO....    ++++++++....OOOO",
"....OOOO    ........        ........OOOO....    ++++++++....OOOO",
"....OOOO    ........        ........OOOO....    ++++++++....OOOO",
"....OOOO....++++....OOOO++++OOOO    ++++++++    OOOOOOOO@@@@....",
"....OOOO....++++....OOOO++++OOOO    ++++++++    OOOOOOOO@@@@....",
"....OOOO....++++....OOOO++++OOOO    ++++++++    OOOOOOOO@@@@....",
"....OOOO....++++....OOOO++++OOOO    ++++++++    OOOOOOOO@@@@....",
"OOOO........OOOO....OOOO....OOOOooooOOOO        OOOOOOOO....    ",
"OOOO........OOOO....OOOO....OOOOooooOOOO        OOOOOOOO....    ",
"OOOO........OOOO....OOOO....OOOOooooOOOO        OOOOOOOO....    ",
"OOOO........OOOO....OOOO....OOOOooooOOOO        OOOOOOOO....    ",
"        ....OOOO........++++................OOOO........++++++++",
"        ....OOOO........++++................OOOO........++++++++",
"        ....OOOO........++++................OOOO........++++++++",
"        ....OOOO........++++................OOOO........++++++++",
"....OOOO........XXXX....OOOOOOOO....            ....++++OOOOOOOO",
"....OOOO........XXXX....OOOOOOOO....            ....++++OOOOOOOO",
"....OOOO........XXXX....OOOOOOOO....            ....++++OOOOOOOO",
"....OOOO........XXXX....OOOOOOOO....            ....++++OOOOOOOO",
"OOOO........++++....    ....    ++++........OOOO........OOOOOOOO",
"OOOO........++++....    ....    ++++........OOOO........OOOOOOOO",
"OOOO........++++....    ....    ++++........OOOO........OOOOOOOO",
"OOOO........++++....    ....    ++++........OOOO........OOOOOOOO",
"OOOO....++++OOOOOOOO....@@@@....OOOOOOOO........@@@@OOOO....    ",
"OOOO....++++OOOOOOOO....@@@@....OOOOOOOO........@@@@OOOO....    ",
"OOOO....++++OOOOOOOO....@@@@....OOOOOOOO........@@@@OOOO....    ",
"OOOO....++++OOOOOOOO....@@@@....OOOOOOOO........@@@@OOOO....    "
};
