/* XPM */
static char *cd7a71f2c39e4382cc622ce737dccd48NuvGsVUZwRArfND1[] = {
/* columns rows colors chars-per-pixel */
"64 64 7 1 ",
"  c #28594A",
". c #3A7967",
"X c #437465",
"o c #6C6C6C",
"O c #4A9782",
"+ c #5DB99E",
"@ c gray53",
/* pixels */
"++++OOOOOOOO........++++OOOOOOOO........    ........++++....++++",
"++++OOOOOOOO........++++OOOOOOOO........    ........++++....++++",
"++++OOOOOOOO........++++OOOOOOOO........    ........++++....++++",
"++++OOOOOOOO........++++OOOOOOOO........    ........++++....++++",
"....OOOO    ........            ....    OOOO....++++OOOO        ",
"....OOOO    ........            ....    OOOO....++++OOOO        ",
"....OOOO    ........            ....    OOOO....++++OOOO        ",
"....OOOO    ........            ....    OOOO....++++OOOO        ",
"++++........    ++++OOOOOOOO....++++    ........    @@@@++++....",
"++++........    ++++OOOOOOOO....++++    ........    @@@@++++....",
"++++........    ++++OOOOOOOO....++++    ........    @@@@++++....",
"++++........    ++++OOOOOOOO....++++    ........    @@@@++++....",
"OOOOoooo++++....    OOOO....++++OOOOOOOO....    ....++++OOOO....",
"OOOOoooo++++....    OOOO....++++OOOOOOOO....    ....++++OOOO....",
"OOOOoooo++++....    OOOO....++++OOOOOOOO....    ....++++OOOO....",
"OOOOoooo++++....    OOOO....++++OOOOOOOO....    ....++++OOOO....",
"OOOO....OOOO++++    OOOO........OOOO    ....++++....OOOO    ....",
"OOOO....OOOO++++    OOOO........OOOO    ....++++....OOOO    ....",
"OOOO....OOOO++++    OOOO........OOOO    ....++++....OOOO    ....",
"OOOO....OOOO++++    OOOO........OOOO    ....++++....OOOO    ....",
"++++    OOOOOOOO....OOOO            ........    ............++++",
"++++    OOOOOOOO....OOOO            ........    ............++++",
"++++    OOOOOOOO....OOOO            ........    ............++++",
"++++    OOOOOOOO....OOOO            ........    ............++++",
"++++............oooo........++++++++....++++++++....OOOO....OOOO",
"++++............oooo........++++++++....++++++++....OOOO....OOOO",
"++++............oooo........++++++++....++++++++....OOOO....OOOO",
"++++............oooo........++++++++....++++++++....OOOO....OOOO",
"........++++++++OOOOOOOO    ....OOOO    OOOO........@@@@OOOOOOOO",
"........++++++++OOOOOOOO    ....OOOO    OOOO........@@@@OOOOOOOO",
"........++++++++OOOOOOOO    ....OOOO    OOOO........@@@@OOOOOOOO",
"........++++++++OOOOOOOO    ....OOOO    OOOO........@@@@OOOOOOOO",
"OOOO........OOOO....OOOO        ....OOOO........OOOOOOOO    ....",
"OOOO........OOOO....OOOO        ....OOOO........OOOOOOOO    ....",
"OOOO........OOOO....OOOO        ....OOOO........OOOOOOOO    ....",
"OOOO........OOOO....OOOO        ....OOOO........OOOOOOOO    ....",
"....OOOO    ........        ........OOOO....    ++++++++....OOOO",
"....OOOO    ........        ........OOOO....    ++++++++....OOOO",
"....OOOO    ........        ........OOOO....    ++++++++....OOOO",
"....OOOO    ........        ........OOOO....    ++++++++....OOOO",
"....OOOO....++++....OOOO++++OOOO    ++++++++    OOOOOOOO@@@@....",
"....OOOO....++++....OOOO++++OOOO    ++++++++    OOOOOOOO@@@@....",
"....OOOO....++++....OOOO++++OOOO    ++++++++    OOOOOOOO@@@@....",
"....OOOO....++++....OOOO++++OOOO    ++++++++    OOOOOOOO@@@@....",
"OOOO........OOOO....OOOO....OOOOooooOOOO        OOOOOOOO....    ",
"OOOO........OOOO....OOOO....OOOOooooOOOO        OOOOOOOO....    ",
"OOOO........OOOO....OOOO....OOOOooooOOOO        OOOOOOOO....    ",
"OOOO........OOOO....OOOO....OOOOooooOOOO        OOOOOOOO....    ",
"        ....OOOO........++++................OOOO........++++++++",
"        ....OOOO........++++................OOOO........++++++++",
"        ....OOOO........++++................OOOO........++++++++",
"        ....OOOO........++++................OOOO........++++++++",
"....OOOO........XXXX....OOOOOOOO....            ....++++OOOOOOOO",
"....OOOO........XXXX....OOOOOOOO....            ....++++OOOOOOOO",
"....OOOO........XXXX....OOOOOOOO....            ....++++OOOOOOOO",
"....OOOO........XXXX....OOOOOOOO....            ....++++OOOOOOOO",
"OOOO........++++....    ....    ++++........OOOO........OOOOOOOO",
"OOOO........++++....    ....    ++++........OOOO........OOOOOOOO",
"OOOO........++++....    ....    ++++........OOOO........OOOOOOOO",
"OOOO........++++....    ....    ++++........OOOO........OOOOOOOO",
"OOOO....++++OOOOOOOO....@@@@....OOOOOOOO........@@@@OOOO....    ",
"OOOO....++++OOOOOOOO....@@@@....OOOOOOOO........@@@@OOOO....    ",
"OOOO....++++OOOOOOOO....@@@@....OOOOOOOO........@@@@OOOO....    ",
"OOOO....++++OOOOOOOO....@@@@....OOOOOOOO........@@@@OOOO....    "
};
