/* XPM */
static char *_c5fb07a710c4f558a586a968d7fd942RTgeYhQ64N884nPY[] = {
/* columns rows colors chars-per-pixel */
"64 64 22 1 ",
"  c None",
". c black",
"X c gray1",
"o c #0A0909",
"O c #191919",
"+ c #312B2A",
"@ c #73635F",
"# c #E58263",
"$ c #E68565",
"% c #E88666",
"& c #FFA784",
"* c #D4B5AD",
"= c #DEC4BC",
"- c #E5C7BF",
"; c #E4CAC2",
": c #E5CBC3",
"> c #E8CDC5",
", c gray94",
"< c gray96",
"1 c #FBFBFB",
"2 c #FEFEFE",
"3 c white",
/* pixels */
"                                                                ",
"                                                                ",
"                                                                ",
"                                                                ",
"                                                                ",
"                                                                ",
"                                                                ",
"                                        ...                     ",
"                                       .>3.                     ",
"               .                      .>33..                    ",
"              ...                    .>3@3>.                    ",
"              .33..                 .>33@3>.                    ",
"             .>@33.                .>33@33>.                    ",
"             .>@333.               .>3@333>..                   ",
"             .33@33>.             .>33@333>>.                   ",
"            .>33@@33..            .>3@33333>.                   ",
"            .3333@333.           .>33@33333>.                   ",
"            .3333@3333............,333@@333>.                   ",
"            .3333@33313$>>>%%>>>&<333333@@3>.                   ",
"            .33@@333333&333&&333&33333333333.                   ",
"            .3@33333333&333&&333&33333333333..                  ",
"            .3333333333&333&&333&33333333333>.                  ",
"            .3333333333&333&&333&33333333333>.                  ",
"           .>3333333333&333&&333&333333333333.                  ",
"           .>33333333333333&&3333333333333333>.                 ",
"           .>33333333333333333333......333333>.                 ",
"           .>3333.......3333333..3..33..333333.                 ",
"           .>333..3..33.333333.333..3333.33333.        ....     ",
"           .>3..333..333.33333.333..3333.3333>.       .333.     ",
"           .>3.3333..333.33333.333..3333.3333>.      .333>.     ",
"           .>3..333..333.333333.33..333..3333>.     .333>.      ",
"           .>>3.333..33..333333........33333>.      .&33..      ",
"           .>>33.......333333333333333333333>.     .&&3.        ",
"            .>3333333333333.33333333333333>>.      .&&%.        ",
"            .>>33333333333...>333333333333>..     .&&&.         ",
"             .>>>333333333>>>33333333333>>>.      .&&%.         ",
"              .>>>>>33333333333333333>>>>..       .&&%.         ",
"               ..>>>>>>33333333333>>>>>>..        .&&%.         ",
"                .>>>>>>>>>>>>>>>>>>>>...         .&&&.          ",
"                 ....>>>>>>>>>>>.....            .&&%.          ",
"                     ...........***...           .&&%.          ",
"                          .*********%.           .&&%.          ",
"                          .*******>-#3.          .&&%.          ",
"                         ..****>--->&3.         ..&&%.          ",
"                         .**---->333&3..        .&&%.           ",
"                         .-->>333333&3&.        .&&%.           ",
"                         .3333333333333&.       .&&%.           ",
"                         .3333333333333&.      .&&&..           ",
"                         .333333333333&33.     .&&%.            ",
"                         .3333>3>33333&33.     .&%.             ",
"                         .3333.3.33333&33.    .&%%.             ",
"                         .>>33...333.>333&.  .&&%.              ",
"                         .>.33>..333.3333&. ..&%..              ",
"                         .>.33>.>333.333&3..33%.                ",
"                         .>.33>.>33.>33333333>&.                ",
"                         .>.33>.>33.>>>:>=:>>=+                 ",
"                         .................Oo...                 ",
"                                                                ",
"                                                                ",
"                                                                ",
"                                                                ",
"                                                                ",
"                                                                ",
"                                                                "
};
