/* XPM */
static char *e73b7104ff9240e9de5d7dbf74a7db2ePxwTI64PyvaIvlzn[] = {
/* columns rows colors chars-per-pixel */
"64 64 7 1 ",
"  c #593D28",
". c #79563A",
"X c #745843",
"o c #6C6C6C",
"O c #976C4A",
"+ c #B9855D",
"@ c gray53",
/* pixels */
"++++OOOOOOOO........++++OOOOOOOO........    ........++++....++++",
"++++OOOOOOOO........++++OOOOOOOO........    ........++++....++++",
"++++OOOOOOOO........++++OOOOOOOO........    ........++++....++++",
"++++OOOOOOOO........++++OOOOOOOO........    ........++++....++++",
"....OOOO    ........            ....    OOOO....++++OOOO        ",
"....OOOO    ........            ....    OOOO....++++OOOO        ",
"....OOOO    ........            ....    OOOO....++++OOOO        ",
"....OOOO    ........            ....    OOOO....++++OOOO        ",
"++++........    ++++OOOOOOOO....++++    ........    @@@@++++....",
"++++........    ++++OOOOOOOO....++++    ........    @@@@++++....",
"++++........    ++++OOOOOOOO....++++    ........    @@@@++++....",
"++++........    ++++OOOOOOOO....++++    ........    @@@@++++....",
"OOOOoooo++++....    OOOO....++++OOOOOOOO....    ....++++OOOO....",
"OOOOoooo++++....    OOOO....++++OOOOOOOO....    ....++++OOOO....",
"OOOOoooo++++....    OOOO....++++OOOOOOOO....    ....++++OOOO....",
"OOOOoooo++++....    OOOO....++++OOOOOOOO....    ....++++OOOO....",
"OOOO....OOOO++++    OOOO........OOOO    ....++++....OOOO    ....",
"OOOO....OOOO++++    OOOO........OOOO    ....++++....OOOO    ....",
"OOOO....OOOO++++    OOOO........OOOO    ....++++....OOOO    ....",
"OOOO....OOOO++++    OOOO........OOOO    ....++++....OOOO    ....",
"++++    OOOOOOOO....OOOO            ........    ............++++",
"++++    OOOOOOOO....OOOO            ........    ............++++",
"++++    OOOOOOOO....OOOO            ........    ............++++",
"++++    OOOOOOOO....OOOO            ........    ............++++",
"++++............oooo........++++++++....++++++++....OOOO....OOOO",
"++++............oooo........++++++++....++++++++....OOOO....OOOO",
"++++............oooo........++++++++....++++++++....OOOO....OOOO",
"++++............oooo........++++++++....++++++++....OOOO....OOOO",
"........++++++++OOOOOOOO    ....OOOO    OOOO........@@@@OOOOOOOO",
"........++++++++OOOOOOOO    ....OOOO    OOOO........@@@@OOOOOOOO",
"........++++++++OOOOOOOO    ....OOOO    OOOO........@@@@OOOOOOOO",
"........++++++++OOOOOOOO    ....OOOO    OOOO........@@@@OOOOOOOO",
"OOOO........OOOO....OOOO        ....OOOO........OOOOOOOO    ....",
"OOOO........OOOO....OOOO        ....OOOO........OOOOOOOO    ....",
"OOOO........OOOO....OOOO        ....OOOO........OOOOOOOO    ....",
"OOOO........OOOO....OOOO        ....OOOO........OOOOOOOO    ....",
"....OOOO    ........        ........OOOO....    ++++++++....OOOO",
"....OOOO    ........        ........OOOO....    ++++++++....OOOO",
"....OOOO    ........        ........OOOO....    ++++++++....OOOO",
"....OOOO    ........        ........OOOO....    ++++++++....OOOO",
"....OOOO....++++....OOOO++++OOOO    ++++++++    OOOOOOOO@@@@....",
"....OOOO....++++....OOOO++++OOOO    ++++++++    OOOOOOOO@@@@....",
"....OOOO....++++....OOOO++++OOOO    ++++++++    OOOOOOOO@@@@....",
"....OOOO....++++....OOOO++++OOOO    ++++++++    OOOOOOOO@@@@....",
"OOOO........OOOO....OOOO....OOOOooooOOOO        OOOOOOOO....    ",
"OOOO........OOOO....OOOO....OOOOooooOOOO        OOOOOOOO....    ",
"OOOO........OOOO....OOOO....OOOOooooOOOO        OOOOOOOO....    ",
"OOOO........OOOO....OOOO....OOOOooooOOOO        OOOOOOOO....    ",
"        ....OOOO........++++................OOOO........++++++++",
"        ....OOOO........++++................OOOO........++++++++",
"        ....OOOO........++++................OOOO........++++++++",
"        ....OOOO........++++................OOOO........++++++++",
"....OOOO........XXXX....OOOOOOOO....            ....++++OOOOOOOO",
"....OOOO........XXXX....OOOOOOOO....            ....++++OOOOOOOO",
"....OOOO........XXXX....OOOOOOOO....            ....++++OOOOOOOO",
"....OOOO........XXXX....OOOOOOOO....            ....++++OOOOOOOO",
"OOOO........++++....    ....    ++++........OOOO........OOOOOOOO",
"OOOO........++++....    ....    ++++........OOOO........OOOOOOOO",
"OOOO........++++....    ....    ++++........OOOO........OOOOOOOO",
"OOOO........++++....    ....    ++++........OOOO........OOOOOOOO",
"OOOO....++++OOOOOOOO....@@@@....OOOOOOOO........@@@@OOOO....    ",
"OOOO....++++OOOOOOOO....@@@@....OOOOOOOO........@@@@OOOO....    ",
"OOOO....++++OOOOOOOO....@@@@....OOOOOOOO........@@@@OOOO....    ",
"OOOO....++++OOOOOOOO....@@@@....OOOOOOOO........@@@@OOOO....    "
};
