/* XPM */
static char *f1ac9861b50449dbb65bc57be7008fe9CVARXg7WR0u6cTzk[] = {
/* columns rows colors chars-per-pixel */
"64 64 7 1 ",
"  c #283459",
". c #3A4879",
"X c #434F74",
"o c #6C6C6C",
"O c #4A5B97",
"+ c #5D73B9",
"@ c gray53",
/* pixels */
"++++OOOOOOOO........++++OOOOOOOO........    ........++++....++++",
"++++OOOOOOOO........++++OOOOOOOO........    ........++++....++++",
"++++OOOOOOOO........++++OOOOOOOO........    ........++++....++++",
"++++OOOOOOOO........++++OOOOOOOO........    ........++++....++++",
"....OOOO    ........            ....    OOOO....++++OOOO        ",
"....OOOO    ........            ....    OOOO....++++OOOO        ",
"....OOOO    ........            ....    OOOO....++++OOOO        ",
"....OOOO    ........            ....    OOOO....++++OOOO        ",
"++++........    ++++OOOOOOOO....++++    ........    @@@@++++....",
"++++........    ++++OOOOOOOO....++++    ........    @@@@++++....",
"++++........    ++++OOOOOOOO....++++    ........    @@@@++++....",
"++++........    ++++OOOOOOOO....++++    ........    @@@@++++....",
"OOOOoooo++++....    OOOO....++++OOOOOOOO....    ....++++OOOO....",
"OOOOoooo++++....    OOOO....++++OOOOOOOO....    ....++++OOOO....",
"OOOOoooo++++....    OOOO....++++OOOOOOOO....    ....++++OOOO....",
"OOOOoooo++++....    OOOO....++++OOOOOOOO....    ....++++OOOO....",
"OOOO....OOOO++++    OOOO........OOOO    ....++++....OOOO    ....",
"OOOO....OOOO++++    OOOO........OOOO    ....++++....OOOO    ....",
"OOOO....OOOO++++    OOOO........OOOO    ....++++....OOOO    ....",
"OOOO....OOOO++++    OOOO........OOOO    ....++++....OOOO    ....",
"++++    OOOOOOOO....OOOO            ........    ............++++",
"++++    OOOOOOOO....OOOO            ........    ............++++",
"++++    OOOOOOOO....OOOO            ........    ............++++",
"++++    OOOOOOOO....OOOO            ........    ............++++",
"++++............oooo........++++++++....++++++++....OOOO....OOOO",
"++++............oooo........++++++++....++++++++....OOOO....OOOO",
"++++............oooo........++++++++....++++++++....OOOO....OOOO",
"++++............oooo........++++++++....++++++++....OOOO....OOOO",
"........++++++++OOOOOOOO    ....OOOO    OOOO........@@@@OOOOOOOO",
"........++++++++OOOOOOOO    ....OOOO    OOOO........@@@@OOOOOOOO",
"........++++++++OOOOOOOO    ....OOOO    OOOO........@@@@OOOOOOOO",
"........++++++++OOOOOOOO    ....OOOO    OOOO........@@@@OOOOOOOO",
"OOOO........OOOO....OOOO        ....OOOO........OOOOOOOO    ....",
"OOOO........OOOO....OOOO        ....OOOO........OOOOOOOO    ....",
"OOOO........OOOO....OOOO        ....OOOO........OOOOOOOO    ....",
"OOOO........OOOO....OOOO        ....OOOO........OOOOOOOO    ....",
"....OOOO    ........        ........OOOO....    ++++++++....OOOO",
"....OOOO    ........        ........OOOO....    ++++++++....OOOO",
"....OOOO    ........        ........OOOO....    ++++++++....OOOO",
"....OOOO    ........        ........OOOO....    ++++++++....OOOO",
"....OOOO....++++....OOOO++++OOOO    ++++++++    OOOOOOOO@@@@....",
"....OOOO....++++....OOOO++++OOOO    ++++++++    OOOOOOOO@@@@....",
"....OOOO....++++....OOOO++++OOOO    ++++++++    OOOOOOOO@@@@....",
"....OOOO....++++....OOOO++++OOOO    ++++++++    OOOOOOOO@@@@....",
"OOOO........OOOO....OOOO....OOOOooooOOOO        OOOOOOOO....    ",
"OOOO........OOOO....OOOO....OOOOooooOOOO        OOOOOOOO....    ",
"OOOO........OOOO....OOOO....OOOOooooOOOO        OOOOOOOO....    ",
"OOOO........OOOO....OOOO....OOOOooooOOOO        OOOOOOOO....    ",
"        ....OOOO........++++................OOOO........++++++++",
"        ....OOOO........++++................OOOO........++++++++",
"        ....OOOO........++++................OOOO........++++++++",
"        ....OOOO........++++................OOOO........++++++++",
"....OOOO........XXXX....OOOOOOOO....            ....++++OOOOOOOO",
"....OOOO........XXXX....OOOOOOOO....            ....++++OOOOOOOO",
"....OOOO........XXXX....OOOOOOOO....            ....++++OOOOOOOO",
"....OOOO........XXXX....OOOOOOOO....            ....++++OOOOOOOO",
"OOOO........++++....    ....    ++++........OOOO........OOOOOOOO",
"OOOO........++++....    ....    ++++........OOOO........OOOOOOOO",
"OOOO........++++....    ....    ++++........OOOO........OOOOOOOO",
"OOOO........++++....    ....    ++++........OOOO........OOOOOOOO",
"OOOO....++++OOOOOOOO....@@@@....OOOOOOOO........@@@@OOOO....    ",
"OOOO....++++OOOOOOOO....@@@@....OOOOOOOO........@@@@OOOO....    ",
"OOOO....++++OOOOOOOO....@@@@....OOOOOOOO........@@@@OOOO....    ",
"OOOO....++++OOOOOOOO....@@@@....OOOOOOOO........@@@@OOOO....    "
};
