/* XPM */
static char *d0fe1c8a98724b7addaa81173226b328CC70dn3CSlB0yObf[] = {
/* columns rows colors chars-per-pixel */
"64 64 256 2 ",
"   c black",
".  c #010101",
"X  c #020202",
"o  c gray1",
"O  c #040404",
"+  c gray2",
"@  c #060606",
"#  c #070707",
"$  c gray3",
"%  c #090909",
"&  c gray4",
"*  c #0B0B0B",
"=  c #0C0C0C",
"-  c gray5",
";  c #0E0E0E",
":  c gray6",
">  c #101010",
",  c #111111",
"<  c gray7",
"1  c #131313",
"2  c gray8",
"3  c #151515",
"4  c #161616",
"5  c gray9",
"6  c #181818",
"7  c #191919",
"8  c gray10",
"9  c #1B1B1B",
"0  c gray11",
"q  c #1D1D1D",
"w  c #1E1E1E",
"e  c gray12",
"r  c #202020",
"t  c gray13",
"y  c #222222",
"u  c #232323",
"i  c gray14",
"p  c #252525",
"a  c gray15",
"s  c #272727",
"d  c #282828",
"f  c gray16",
"g  c #2A2A2A",
"h  c gray17",
"j  c #2C2C2C",
"k  c #2D2D2D",
"l  c gray18",
"z  c #2F2F2F",
"x  c gray19",
"c  c #313131",
"v  c #323232",
"b  c gray20",
"n  c #343434",
"m  c #353535",
"M  c gray21",
"N  c #373737",
"B  c gray22",
"V  c #393939",
"C  c #3A3A3A",
"Z  c gray23",
"A  c #3C3C3C",
"S  c gray24",
"D  c #3E3E3E",
"F  c #3F3F3F",
"G  c gray25",
"H  c #414141",
"J  c gray26",
"K  c #434343",
"L  c #444444",
"P  c gray27",
"I  c #464646",
"U  c gray28",
"Y  c #484848",
"T  c #494949",
"R  c gray29",
"E  c #4B4B4B",
"W  c #4C4C4C",
"Q  c gray30",
"!  c #4E4E4E",
"~  c gray31",
"^  c #505050",
"/  c #515151",
"(  c gray32",
")  c #535353",
"_  c gray33",
"`  c #555555",
"'  c #565656",
"]  c gray34",
"[  c #585858",
"{  c gray35",
"}  c #5A5A5A",
"|  c #5B5B5B",
" . c gray36",
".. c #5D5D5D",
"X. c gray37",
"o. c #5F5F5F",
"O. c #606060",
"+. c gray38",
"@. c #626262",
"#. c gray39",
"$. c #646464",
"%. c #656565",
"&. c gray40",
"*. c #676767",
"=. c #686868",
"-. c DimGray",
";. c #6A6A6A",
":. c gray42",
">. c #6C6C6C",
",. c #6D6D6D",
"<. c gray43",
"1. c #6F6F6F",
"2. c gray44",
"3. c #717171",
"4. c #727272",
"5. c gray45",
"6. c #747474",
"7. c gray46",
"8. c #767676",
"9. c #777777",
"0. c gray47",
"q. c #797979",
"w. c gray48",
"e. c #7B7B7B",
"r. c #7C7C7C",
"t. c gray49",
"y. c #7E7E7E",
"u. c gray50",
"i. c #808080",
"p. c #818181",
"a. c gray51",
"s. c #838383",
"d. c #848484",
"f. c gray52",
"g. c #868686",
"h. c gray53",
"j. c #888888",
"k. c #898989",
"l. c gray54",
"z. c #8B8B8B",
"x. c gray55",
"c. c #8D8D8D",
"v. c #8E8E8E",
"b. c gray56",
"n. c #909090",
"m. c gray57",
"M. c #929292",
"N. c #939393",
"B. c gray58",
"V. c #959595",
"C. c gray59",
"Z. c #979797",
"A. c #989898",
"S. c gray60",
"D. c #9A9A9A",
"F. c #9B9B9B",
"G. c gray61",
"H. c #9D9D9D",
"J. c gray62",
"K. c #9F9F9F",
"L. c #A0A0A0",
"P. c gray63",
"I. c #A2A2A2",
"U. c gray64",
"Y. c #A4A4A4",
"T. c #A5A5A5",
"R. c gray65",
"E. c #A7A7A7",
"W. c gray66",
"Q. c #A9A9A9",
"!. c #AAAAAA",
"~. c gray67",
"^. c #ACACAC",
"/. c gray68",
"(. c #AEAEAE",
"). c #AFAFAF",
"_. c gray69",
"`. c #B1B1B1",
"'. c #B2B2B2",
"]. c gray70",
"[. c #B4B4B4",
"{. c gray71",
"}. c #B6B6B6",
"|. c #B7B7B7",
" X c gray72",
".X c #B9B9B9",
"XX c gray73",
"oX c #BBBBBB",
"OX c #BCBCBC",
"+X c gray74",
"@X c gray",
"#X c gray75",
"$X c #C0C0C0",
"%X c #C1C1C1",
"&X c gray76",
"*X c #C3C3C3",
"=X c gray77",
"-X c #C5C5C5",
";X c #C6C6C6",
":X c gray78",
">X c #C8C8C8",
",X c gray79",
"<X c #CACACA",
"1X c #CBCBCB",
"2X c gray80",
"3X c #CDCDCD",
"4X c #CECECE",
"5X c gray81",
"6X c #D0D0D0",
"7X c gray82",
"8X c #D2D2D2",
"9X c LightGray",
"0X c gray83",
"qX c #D5D5D5",
"wX c gray84",
"eX c #D7D7D7",
"rX c #D8D8D8",
"tX c gray85",
"yX c #DADADA",
"uX c gray86",
"iX c gainsboro",
"pX c #DDDDDD",
"aX c gray87",
"sX c #DFDFDF",
"dX c gray88",
"fX c #E1E1E1",
"gX c #E2E2E2",
"hX c gray89",
"jX c #E4E4E4",
"kX c gray90",
"lX c #E6E6E6",
"zX c #E7E7E7",
"xX c gray91",
"cX c #E9E9E9",
"vX c #EAEAEA",
"bX c gray92",
"nX c #ECECEC",
"mX c gray93",
"MX c #EEEEEE",
"NX c #EFEFEF",
"BX c gray94",
"VX c #F1F1F1",
"CX c gray95",
"ZX c #F3F3F3",
"AX c #F4F4F4",
"SX c gray96",
"DX c #F6F6F6",
"FX c gray97",
"GX c #F8F8F8",
"HX c #F9F9F9",
"JX c gray98",
"KX c #FBFBFB",
"LX c gray99",
"PX c #FDFDFD",
"IX c #FEFEFE",
"UX c white",
/* pixels */
"F.Y.U.K.I.L.G.J.K.P.U.P.H.F.G.H.I.G.L.U.G.D.H.F.F.A.J.I.K.I.T.P.K.L.I.U.Y.U.I.L.E.T.J.J.R.R.U.E.P.P.L.L.P.I.Y.T.Q.W.T.U.P.P.P.P.",
"F.U.I.H.L.L.G.J.L.L.L.K.H.F.G.G.U.J.P.Y.F.A.F.D.K.G.P.T.P.I.Y.K.G.H.K.I.U.Y.U.I.T.U.G.H.T.Y.L.Y.U.I.P.P.P.P.I.U.T.R.E.E.R.Y.P.K.",
"F.U.L.F.J.J.G.J.I.L.H.G.G.H.G.G.P.G.P.U.F.A.G.G.J.F.P.T.I.U.T.K.J.J.K.P.U.U.I.L.Y.P.F.H.T.P.G.P.Y.Y.U.I.P.P.P.P.I.U.Y.Y.Y.U.P.L.",
"F.I.K.D.J.J.G.K.Y.L.G.G.J.K.J.H.H.S.K.I.F.D.P.I.S.Z.J.Y.I.Y.R.P.T.U.I.I.U.I.K.H.U.L.D.H.T.L.D.K.Y.Y.U.I.I.P.P.P.U.P.H.F.G.J.I.T.",
"F.U.L.F.K.K.J.P.T.I.J.H.L.P.P.K.J.F.L.U.F.D.I.Y.F.S.L.T.I.T.W.U.W.T.U.U.T.Y.P.J.T.L.D.J.R.L.D.L.I.U.U.U.U.U.U.I.P.K.G.F.G.K.Y.E.",
"G.Y.I.J.I.I.L.U.Y.I.L.L.P.I.I.P.Y.L.T.R.F.A.L.U.Y.P.T.W.Y.T.W.U.E.Y.P.U.R.W.R.I.R.K.S.K.E.L.D.U.I.I.U.Y.Y.U.U.U.J.K.P.U.Y.T.T.T.",
"H.R.T.P.T.T.I.Y.P.I.I.I.L.L.P.I.E.Y.W.W.G.A.L.U.Q.Y.E.Q.Y.R.Q.T.E.U.L.P.R.W.R.U.R.J.Z.H.R.K.D.T.U.Y.T.T.Y.U.I.P.K.L.U.R.E.E.R.T.",
"J.E.E.U.E.E.U.T.J.P.U.I.L.J.K.P.R.U.W.W.H.D.I.R.E.I.T.E.U.R.~.W.Q.Y.L.P.T.R.U.K.T.H.V.G.T.J.D.T.T.R.R.T.Y.I.L.K.I.I.P.P.I.T.E.Q.",
"P.W.R.U.W.W.I.I.H.K.P.K.H.J.I.E.I.W.U.R.L.Z.Y.W.Y.U.U.Y.T.R.R.T.T.Y.U.U.Y.U.P.L.L.L.Z.L.U.J.Y.L.T.W.W.U.P.I.P.K.P.H.H.L.U.Y.T.W.",
"J.R.Y.P.R.R.P.P.H.L.U.P.H.H.U.Q.Y.Q.U.T.K.C.I.R.P.L.P.I.T.E.E.R.E.R.T.R.R.R.Y.I.Y.I.Z.H.L.G.Y.I.Y.E.E.Y.I.U.U.P.P.H.H.L.U.U.Y.E.",
"G.Y.U.L.R.R.P.I.J.P.U.P.J.J.U.Q.T.Q.I.Y.J.V.L.U.J.H.J.P.Y.E.E.E.E.R.R.R.E.R.T.U.E.U.C.F.H.F.T.Y.I.R.R.I.P.I.U.P.I.J.H.L.I.P.I.T.",
"H.R.T.I.E.E.U.Y.I.I.P.L.L.P.Y.R.U.E.L.U.H.V.K.I.H.H.H.L.U.T.R.T.T.T.Y.T.T.T.U.I.E.Y.Z.G.J.F.Y.U.I.T.T.P.K.L.L.J.U.K.H.L.P.P.P.U.",
"G.R.R.U.E.R.U.T.R.P.H.J.I.T.Y.I.I.T.J.I.J.C.P.U.K.J.J.K.I.U.U.I.T.Y.U.Y.T.T.Y.I.Y.I.A.K.P.G.U.L.Y.E.E.I.K.L.L.J.Y.K.J.L.I.P.P.U.",
"F.R.R.U.T.Y.P.T.R.P.G.H.I.T.Y.P.I.T.H.P.K.A.I.U.L.K.K.L.P.I.P.L.T.Y.Y.T.R.R.T.U.P.P.S.P.U.H.I.J.T.W.W.Y.P.I.I.L.Y.L.J.P.U.I.I.Y.",
"H.W.W.Y.R.Y.I.T.I.P.K.J.K.L.I.U.Y.R.J.I.K.A.P.I.P.L.K.L.P.I.I.P.Y.U.U.Y.T.T.Y.U.P.L.A.L.U.J.U.K.I.T.R.I.P.U.U.I.T.P.K.I.Y.U.Y.R.",
"L.~.~.E.W.R.U.E.K.P.U.L.G.G.L.T.E.W.K.U.L.A.L.L.L.K.K.L.I.U.U.I.P.L.L.P.U.U.I.L.P.L.Z.K.I.H.Y.P.G.L.P.K.J.P.I.P.T.P.L.U.T.Y.T.E.",
"F.Q.W.L.I.Y.P.P.P.I.I.L.H.H.K.I.G.P.G.U.P.D.U.U.A.D.H.K.P.U.T.E.Q.E.U.L.K.H.G.D.R.U.D.D.P.K.F.K.U.U.I.L.K.K.L.I.U.Y.K.A.Z.J.Y.T.",
"C.U.I.F.J.L.K.K.U.Y.Y.I.L.L.I.Y.D.K.D.L.K.A.P.I.H.J.L.I.U.T.E.W.E.T.I.L.K.J.G.F.T.I.S.S.P.J.D.K.T.T.U.P.K.L.I.Y.L.P.K.D.S.J.P.L.",
"A.Y.U.H.L.U.U.T.L.L.L.J.H.H.K.P.I.T.J.U.L.S.U.Y.H.H.J.K.L.I.I.U.E.R.Y.Y.Y.U.P.K.R.U.F.G.T.Y.L.R.I.P.K.G.D.F.J.P.U.T.T.I.I.U.U.L.",
"F.T.Y.K.U.Y.Y.E.R.T.Y.U.U.U.T.R.E.Q.P.Y.L.A.P.I.R.T.T.T.R.R.R.T.I.I.I.U.Y.U.P.K.I.L.S.G.R.R.Y.!.W.E.Y.P.K.L.Y.E.T.R.R.T.T.T.U.L.",
"C.K.J.D.H.G.F.K.L.J.H.H.H.J.K.K.L.I.D.J.F.N.H.J.I.L.J.J.L.L.J.G.S.S.D.F.H.H.G.D.K.G.V.Z.L.L.H.I.I.P.J.F.S.D.J.P.P.K.H.J.K.J.G.F.",
"N.F.F.S.G.S.C.G.F.S.Z.Z.S.D.D.D.F.J.A.J.G.C.L.P.H.F.A.A.D.D.Z.V.A.A.A.D.G.H.H.G.Y.P.A.A.K.H.S.J.F.D.A.V.B.B.Z.D.L.G.S.F.H.G.F.F.",
"C.J.L.L.Y.L.H.I.W.T.U.Y.R.W.W.E.P.T.L.R.Y.G.T.R.!.E.Y.Y.R.R.U.L.J.H.H.J.L.I.I.I.Q.T.G.G.U.P.G.P.T.Y.U.P.K.K.I.Y.Y.J.H.P.Y.I.K.K.",
"A.P.Y.R.~.R.U.Q.E.Y.I.I.T.E.E.R.W.^.R.~.E.J.T.Y.Q.T.I.I.Y.Y.P.J.L.J.H.J.L.U.Y.Y.Y.I.D.F.U.I.K.Y.P.P.L.K.H.H.J.L.Y.K.K.T.Q.T.P.L.",
"A.Y.Y.J.I.R.R.W.!.T.U.T.R.R.E.!.H.G.U.T.R.S.^.R.G.H.L.U.T.T.I.K.J.J.L.U.L.F.S.D.T.U.G.F.L.F.C.F.J.I.T.Y.L.K.P.U.H.T.L.N.V.U.R.H.",
"A.Y.T.K.U.R.T.R.E.Y.U.E.Q.E.R.E.R.U.E.R.R.Z.Q.I.J.K.L.P.U.I.K.G.J.J.L.U.I.H.F.H.Y.P.S.S.P.J.A.G.G.L.I.I.K.H.K.I.K.T.I.S.F.T.R.K.",
"A.T.R.P.Y.R.Y.Y.U.P.U.W.!.E.T.T.~.E.!.E.T.Z.Q.U.Y.U.I.I.I.P.J.G.J.J.L.Y.U.K.K.P.U.J.C.Z.I.P.F.J.G.J.P.P.J.H.K.P.I.U.U.P.U.R.T.P.",
"Z.T.E.U.R.E.U.U.U.L.I.E.Q.R.Y.T.!.R.W.T.T.A.^.E.W.R.Y.U.U.I.P.L.J.H.L.Y.Y.P.I.T.Y.J.B.C.I.I.G.H.G.J.L.L.K.J.K.P.I.P.I.E.W.T.I.I.",
"Z.T.W.U.E.E.U.I.T.P.L.U.T.Y.Y.R.W.Y.R.Y.U.Z.^.W.E.T.U.U.U.U.U.I.J.H.L.Y.Y.P.I.R.R.L.B.C.P.P.F.H.F.G.J.K.J.J.K.K.P.J.P.E.Q.Y.L.L.",
"Z.T.W.U.E.W.Y.Y.E.I.K.L.I.P.U.R.Q.Y.R.U.I.V.Q.Y.Y.U.P.P.I.I.I.P.J.H.K.I.I.L.P.Y.E.P.C.C.L.K.D.H.D.F.G.H.J.J.J.J.K.J.L.Y.R.U.K.J.",
"Z.T.E.U.E.Q.T.R.E.I.K.L.P.L.P.Y.Q.T.E.Y.U.V.W.U.Y.I.P.P.I.P.L.K.J.H.J.P.L.H.J.P.T.P.Z.Z.K.J.D.L.H.H.J.K.P.P.P.L.H.K.L.L.I.U.P.H.",
"Z.T.E.I.R.Q.R.E.E.I.K.P.P.L.L.I.E.U.E.T.Y.Z.!.T.R.T.U.U.U.I.L.J.J.H.J.K.J.F.G.K.I.L.A.Z.J.H.F.U.P.P.P.U.T.R.T.Y.H.P.P.J.K.Y.U.H.",
"A.R.W.U.R.W.Y.Y.U.I.P.P.I.U.T.R.W.K.Q.I.I.A.T.Y.T.U.P.L.I.U.Y.Y.J.G.H.L.L.H.G.J.K.J.Z.Z.J.H.G.Y.G.J.K.K.I.W.W.R.L.L.P.I.P.L.K.J.",
"A.T.R.P.U.Y.L.L.I.P.P.L.P.U.Y.T.R.J.W.I.I.S.R.T.E.Y.P.L.L.I.U.U.P.J.G.J.J.G.G.K.I.L.S.A.J.G.S.L.J.L.L.K.P.T.T.I.Y.U.I.P.P.P.I.U.",
"S.R.R.K.P.I.J.H.L.K.K.K.L.I.Y.T.R.J.W.I.P.A.T.Y.W.T.I.L.L.P.P.P.U.K.H.J.J.J.L.Y.U.P.S.S.L.J.F.P.J.L.L.K.P.Y.Y.L.P.P.P.P.P.P.P.P.",
"D.R.R.L.I.U.K.K.K.J.J.J.K.P.U.Y.W.K.W.P.L.C.I.P.Y.U.I.I.U.I.P.L.P.J.J.P.I.I.Y.W.I.L.S.F.U.I.K.T.F.J.K.K.I.R.T.I.G.J.I.T.T.U.L.J.",
"S.T.T.K.P.U.L.P.K.J.J.J.K.P.I.U.T.H.R.L.L.Z.Y.U.J.K.P.Y.R.T.P.J.K.J.K.I.U.P.P.Y.P.K.A.D.Y.U.K.U.G.K.L.L.I.R.Y.L.K.L.U.Y.T.T.Y.U.",
"Z.Y.U.H.K.P.K.L.L.L.K.K.K.L.I.U.L.A.U.K.L.S.E.E.F.H.P.T.E.R.P.J.L.J.J.P.P.H.G.H.U.L.A.S.I.L.D.H.L.U.U.I.U.T.I.H.P.K.G.F.G.K.U.R.",
"D.R.T.H.K.P.J.K.I.P.L.K.K.L.P.I.L.S.U.J.K.A.T.T.J.J.L.U.T.Y.P.K.L.H.H.L.L.J.J.P.T.P.S.F.Y.I.G.J.I.Y.T.Y.Y.T.I.H.H.G.F.F.H.K.I.Y.",
"J.!.W.K.P.I.K.L.U.I.P.L.L.L.P.P.T.G.R.K.J.V.P.L.I.P.L.P.I.I.P.K.K.G.G.K.P.I.R.!.T.P.D.H.Q.W.P.Y.K.I.Y.Y.R.W.T.L.F.K.Y.W.Q.W.T.U.",
"F.U.U.P.Y.P.F.H.G.J.L.P.L.K.K.K.U.H.L.I.D.S.K.L.S.F.J.L.P.P.P.L.J.F.G.L.Y.U.Y.R.U.P.G.K.!.E.P.U.I.I.I.U.T.Y.U.P.G.J.L.I.U.I.L.K.",
"S.I.I.K.I.L.F.G.S.F.J.K.J.J.J.J.P.F.J.L.S.A.K.L.H.J.K.L.P.L.L.K.I.J.J.P.Y.U.Y.R.R.Y.J.P.!.E.L.I.P.L.P.I.U.U.P.L.G.J.P.Y.Y.U.P.K.",
"c.Z.Z.N.C.V.n.m.n.N.V.C.C.C.C.Z.Z.M.C.S.M.m.Z.S.Z.Z.Z.C.C.C.C.V.A.B.M.V.A.A.S.G.D.A.M.V.K.G.V.Z.C.C.C.Z.A.S.Z.C.m.N.C.A.S.A.V.B.",
"Z.I.I.G.L.L.G.G.F.H.L.P.I.P.I.U.K.D.K.U.G.G.I.U.I.I.P.P.P.P.I.I.L.F.S.G.K.L.I.T.K.H.A.F.R.U.H.K.H.H.G.H.K.L.K.J.F.G.G.H.J.J.J.J.",
"J.!.Q.U.R.Q.T.Y.P.U.R.E.E.E.W.Q.I.J.U.E.P.L.R.E.E.E.E.E.W.Q.~.~.Q.Y.P.U.Y.U.Y.E.R.U.H.L.!.E.L.I.P.L.L.P.I.Y.U.U.Y.U.P.L.L.I.T.E.",
"C.U.P.S.H.P.J.G.H.L.I.Y.U.U.Y.Y.G.A.J.I.G.F.L.P.G.H.J.K.P.I.U.Y.E.P.H.H.G.S.A.S.L.J.Z.S.P.H.V.C.J.H.G.G.J.L.L.L.K.H.D.A.A.F.K.I.",
"S.E.T.G.L.T.I.L.T.E.Q.!.!.Q.Q.!.U.K.T.Q.I.P.R.R.K.L.I.Y.R.E.E.E.!.T.I.I.P.H.F.G.P.K.S.F.Y.P.D.G.Y.I.P.I.Y.R.E.E.I.P.L.K.K.P.U.T.",
"S.W.R.G.L.E.Y.P.U.T.E.W.E.R.R.R.P.H.U.E.L.K.U.U.P.I.T.E.W.W.W.E.T.P.L.I.I.L.J.L.F.D.V.D.T.Y.J.P.K.H.G.H.K.P.I.I.L.P.P.I.U.U.U.U.",
"P.W.W.P.L.T.Y.J.E.E.E.E.R.R.R.R.U.L./.Y.P.S.E.T.Y.Y.U.U.U.Y.R.E.U.L.L.I.I.J.J.P.J.P.S.K.I.L.E.U.L.K.K.P.U.T.T.Y.U.U.Y.T.T.T.T.T.",
"L.R.R.L.K.Y.Y.K.R.R.R.T.T.T.T.T.U.L.^.Y.I.D.W.T.T.Y.U.U.U.Y.T.R.Y.L.L.U.I.K.K.P.K.P.D.L.U.P.Q.Y.T.Y.U.Y.R.E.W.W.Y.Y.T.T.R.R.T.T.",
"L.T.T.K.J.U.Y.P.T.T.T.T.Y.Y.Y.Y.U.K.~.U.I.F.Q.R.T.Y.U.I.I.U.Y.Y.Y.I.P.U.U.P.L.I.L.I.D.P.T.Y.~.R.Q.E.T.T.E.W.Q.Q.E.E.R.R.R.R.R.R.",
"L.Y.T.P.K.I.Y.Y.R.T.T.T.T.T.Y.Y.I.J.!.U.U.G.Q.R.T.Y.U.I.P.I.I.U.Y.U.U.Y.Y.U.U.U.I.Y.F.I.E.R./.E.!.W.T.U.T.R.W.W.Q.W.W.E.R.R.R.R.",
"P.T.E.Y.P.U.T.R.E.E.R.R.R.R.R.T.I.H.W.P.I.G.W.Y.T.Y.I.P.P.P.I.I.Y.T.T.Y.Y.T.T.T.Y.T.G.U.W.W.(.E.!.W.Y.U.Y.R.E.E.Q.Q.W.E.R.R.E.E.",
"P.R.Q.E.Y.I.Y.R.E.E.E.E.R.R.R.R.I.G.R.K.P.F.R.P.U.I.P.L.L.P.I.I.Y.R.E.T.T.E.W.R.R.R.G.U.Q.W./.R.~.W.R.T.R.E.W.W.Q.W.E.R.R.R.E.W.",
"L.T.Q.Q.Y.P.P.Y.R.R.R.R.R.T.T.T.P.F.T.J.K.S.Y.J.I.P.L.L.L.P.I.U.Y.W.W.T.R.Q.Q.E.W.E.G.U.Q.W.^.Y.Q.W.E.E.W.Q.Q.W.W.E.R.T.T.R.W.Q.",
"K.Y.Q.!.Y.K.K.I.T.T.T.T.Y.Y.Y.Y.P.D.Y.H.J.A.I.G.P.L.L.K.L.P.I.U.T.W.W.R.R.!.!.E.Q.E.G.U.Q.E.~.I.E.R.R.R.W.W.W.E.E.R.T.Y.Y.R.W.Q.",
"G.T.U.K.I.I.J.L.R.T.Y.I.P.P.I.I.Y.D.I.H.J.C.P.J.H.J.K.J.H.K.U.E.I.R.!.~.Q.E.E.E.W.!.G.P.~.R.!.~.Q.E.U.I.U.T.E.E.E.W.R.I.I.R.W.E.",
"J.T.P.F.K.L.K.U.U.I.P.K.J.J.K.K.Y.F.T.L.I.A.I.H.P.I.I.L.H.G.J.L.H.P.R.Q.W.E.E.E.T.W.D.L.Q.U.T.T.Y.I.K.J.L.U.Y.T.Q.!.W.Y.U.E.Q.W.",
"L.R.L.D.J.P.I.E.Y.U.P.L.K.K.L.L.J.C.I.L.U.S.I.H.F.H.J.K.J.J.L.P.I.T.Q.!.W.Y.P.L.T.Q.H.U.^.Y.Y.U.U.L.J.J.L.U.T.R.E.W.R.I.I.T.R.T.",
"G.I.J.Z.G.K.K.T.Y.U.I.L.K.K.L.L.S.m.J.G.L.A.U.K.Z.S.G.J.L.L.L.L.U.T.W.Q.E.U.J.G.U.W.H.T./.T.Y.I.U.P.J.H.K.I.U.Y.I.Y.I.K.K.U.Y.U.",
"Z.K.G.A.G.H.G.K.U.I.L.K.J.J.J.K.K.C.L.G.K.A.U.L.K.K.L.P.P.K.H.F.F.J.I.R.W.E.T.U.L.T.F.U./.T.T.U.Y.P.J.G.H.K.L.L.P.U.U.L.P.T.R.T.",
"D.U.I.K.U.I.K.P.R.T.U.P.P.P.P.I.Q.J.R.K.L.Z.I.K.K.K.L.I.U.U.L.J.I.U.T.W.~.^.!.W.Y.E.G.Y.(.E.W.W.W.T.P.K.L.P.P.P.U.T.T.U.Y.W.Q.E.",
"G.Y.U.K.U.I.K.P.T.Y.I.P.L.L.L.P.T.F.Y.J.K.B.J.S.S.S.D.H.P.I.P.L.R.T.Y.R.E.E.T.U.R.Q.F.I.~.T.E.E.E.Y.L.K.L.P.I.I.P.U.U.P.P.U.U.P.",
"C.J.F.Z.D.D.Z.D.H.G.F.S.A.A.S.S.S.m.G.S.F.m.S.B.D.A.Z.A.D.F.A.C.A.Z.Z.S.H.K.K.J.I.U.B.S.P.F.K.L.J.F.S.A.S.F.G.H.H.K.J.F.D.F.D.Z."
};
