/* XPM */
static char *bf33a8fe76704e35e54bdc41a657f488npfFkmbYDdglFwVH[] = {
/* columns rows colors chars-per-pixel */
"64 64 105 2 ",
"   c None",
".  c #0D0400",
"X  c #110602",
"o  c #160A05",
"O  c #1B0D07",
"+  c #1A0E09",
"@  c #1E110C",
"#  c #23140D",
"$  c #251611",
"%  c #281710",
"&  c #271913",
"*  c #2B1B14",
"=  c #2E1F19",
"-  c #301F18",
";  c #2F211C",
":  c #34231C",
">  c #372720",
",  c #382720",
"<  c #372822",
"1  c #3C2B24",
"2  c #3F2F28",
"3  c #402F28",
"4  c #44332C",
"5  c #473730",
"6  c #483730",
"7  c #473832",
"8  c #4C3B34",
"9  c #4F3F38",
"0  c #503F38",
"q  c #54433C",
"w  c #584740",
"e  c #5C4B44",
"r  c #604F48",
"t  c #64534C",
"y  c #685750",
"u  c #6C5B54",
"i  c #6F5F58",
"p  c #705F58",
"a  c #74635C",
"s  c #786760",
"d  c #7C6B64",
"f  c #806F68",
"g  c #85746D",
"h  c #88776F",
"j  c #887770",
"k  c #8C7B74",
"l  c #907F78",
"z  c #94837C",
"x  c #988780",
"c  c #9C8B84",
"v  c #A08F88",
"b  c #A4938C",
"n  c #A89790",
"m  c #AD9C95",
"M  c #AE9D96",
"N  c #AF9E97",
"B  c #AB9A93",
"V  c #B09F98",
"C  c #B09F98",
"Z  c #B1A099",
"A  c #B2A19A",
"S  c #B3A29B",
"D  c #B4A39C",
"F  c #B5A49D",
"G  c #B6A59E",
"H  c #B7A69F",
"J  c #B2A19A",
"K  c #B8A7A0",
"L  c #B8A7A0",
"P  c #B9A8A1",
"I  c #BAA9A2",
"U  c #BBAAA3",
"Y  c #BCABA4",
"T  c #BDACA5",
"R  c #BEADA6",
"E  c #BEAEA7",
"W  c #BFAEA7",
"Q  c #BDACA5",
"!  c #C0AFA8",
"~  c #C0AFA8",
"^  c #C1B0A9",
"/  c #C2B1AA",
"(  c #C4B3AC",
")  c #C5B4AD",
"_  c #C6B5AE",
"`  c #C7B6AF",
"'  c #C8B7B0",
"]  c #C8B8B1",
"[  c #CAB9B2",
"{  c #CBBAB3",
"}  c #CBBAB4",
"|  c #CDBCB5",
" . c #CEBDB6",
".. c #CFBEB7",
"X. c #D0BFB8",
"o. c #D2C1BA",
"O. c #D1C0B9",
"+. c #DCCBC4",
"@. c #E0CFC8",
"#. c #E1D0C9",
"$. c #E2D1CA",
"%. c #E7D7D0",
"&. c #E8D7D1",
"*. c #EAD9D2",
"=. c #EDDCD5",
/* pixels */
"                                                                                                                                ",
"    c z c                               P A A                                                                                   ",
"    k z g s                           l b G b                                                                                   ",
"    j z k t i                       f g M E b                                                                                   ",
"    a k b a q d                   g u k E D z                                                                                   ",
"    u i k d e e z g   s s     u g a a c E b l                                                                                   ",
"    a q u t 8 e u e 8 e e q w t a a d k c k z                                                                                   ",
"    g e r t p s u e , u u a 6 e a z B f h d B                                                                                   ",
"    d 4 u l s y u u 4 w w u 7 u j j c B v t k                                                                                   ",
"    t 4 d u t u d w q q q q a t k k k z B s a                                                                                   ",
"    e r a s a i l e a y 2 q b w z j k c z k d                                                                                   ",
"    a g g a d p i d z a q t C c z j z x c M B                                                                                   ",
"    g a q e q 4 $ 2 j a t g _ k 1 4 u t t x P                                                                                   ",
"    u , q g u 2 & = t j d b G q 1 4 u b d 7 z                                                                                   ",
"    3 1 5 q a a a t e z B E c i g d z k a e e                                                                                   ",
"    e f g 8 q p z k q g W Y g b H b j p v K g                                                                                   ",
"    j z u e e i a g s 8 e e j c c c f d j _ L                                                                                   ",
"      a e a c b k d b x 8 g ( z c ] } c u x                                                                                     ",
"      z k d c ( n c P Y g A ..L W +.' M A G                                                                                     ",
"      z z z g c [ ..X.( W } +.&.%.} M W G G                                                                                     ",
"      a a k x z c M O.#.*.=.#.' G A E c j M                                                                                     ",
"    a 0 t a g z l c A ( [ ( B x b c d e u g                                                                                     ",
"    q 1 1 8 s k z c x n n v x g e 7 1 4 u a c                                                                                   ",
"  b d * + % q i d g j z c j p 4 $ # * q i t c                                                                                   ",
"  d z e $ @ $ : 4 4 9 q w 7 = @ $ 4 i k t q x b                                                                                 ",
"  4 p d i e r e 0 t p u t 7 5 q y d a t 4 d B k s d                                                                             ",
"  q & 8 u a d t e e r t d i t t e 7 : # 4 z c d a i d                                                                           ",
"  z 3 + & 1 , : - - * : 2 ; @ @ + @ 1 u k d g d u i d d j                                                                       ",
"  P z q & + @ 5 e q 4 3 = @ + @ , q z A b s d j t i j l i i                                                                     ",
"  b c z g a p z k d u i a a a d g x c z j g j j u u d c d u a                                                                   ",
"  v z j j c c z f d s y a l c c g a u t s k z a a t d j j f k d                                                                 ",
"  g t r a d g j s e q q e i l l u e a a s z b i d e q g j g z a i                                                               ",
"  n a 6 q u f f u 4 6 q 7 , 1 r d h l v v v k q y t 0 p l h g k i a                                                             ",
"  S z k g y q q q 8 t d a r 3 & 4 u g v g y 6 : 4 r 6 w k z k v d t y                                                           ",
"    p u q 4 , 1 4 0 f k d a q 1 O % 6 t 6 : 6 y r y 8 q f z z v g p e t                                                         ",
"    3 - 1 r q 3 3 y g j i y q : 1 # # # # 3 z b b a 3 q d g a a g k q t                                                         ",
"    0 - w k a w w y g j d p e 1 w y 0 4 0 g C v z r - q p p t 6 y a 4 e y                                                       ",
"      k v B k p p a j l j f a t f v c v z n v v k 3 * 8 a u 0 4 r r a k y                                                       ",
"      E H V x g d f l v c j j f j n B n g q q p a - * 6 y r 3 u a d b j t q                                                     ",
"      B B b x l g k l v v l l g z v l a 8 3 * * : * 4 6 w 0 q a 8 g c q 7 0                                                     ",
"      a q e g k g h k v b z k h k u 2 ; w s a w 8 : 8 0 w q y 0 7 f u q f w q                                                   ",
"        i : 1 r u p s z v n k d y $ & t c c x x h 6 4 0 6 4 6 3 q a a z k r 0 w                                                 ",
"        ' d : * 6 q e f k v g t 1 * j m c x x d r : 3 0 : : : : 8 t a t 4 q a w                                                 ",
"        X.S r O # : 0 e t a f q $ t Z W D j d k z 0 - - * * % % : 0 8 : 1 k h u a                                               ",
"        N v s - O # : 3 9 w u q ; d m Z C j d c z 6 % % % # # : q a u p k n k r y u                                             ",
"        q 4 6 4 , : : : 3 q q q 8 t s d d q 2 9 8 : % * * - 4 0 0 q t a z h q 4 u f                                             ",
"        8 * # * 4 7 4 3 4 w q 1 7 & $ @ @ o X * q * - , 3 8 0 0 q q w q q 0 6 r a p                                             ",
"        n k r , , ; % $ , 4 2 = : + & & 1 & * s y : : 8 w q 0 w a p a d a a y y t a                                             ",
"          A a : O X . o 4 2 : 3 : 4 d j k r u t 1 , 4 q e q t f l g p y p t 0 0 7                                               ",
"          A g 8 : 1 2 8 w 5 1 4 4 a z x k r 1 4 , 1 4 q w y g k k l f a a f t 8 q                                               ",
"          B d e d j d d t q q 4 e c g t q 6 e z 8 4 8 q u g z x k v v z h p 8 8 8                                               ",
"          t w d x z j g u e e w u k g d d k n c 6 8 t p f k l z l z l h d p p w 4 7                                             ",
"          k x b z k d c g a u y a t t u a g d t 3 w a a f j h g d f g z p 8 q 0 6 8                                             ",
"          d g g p y e   z d u i g e 4 e 9 : 1 e w y u w t s p r w 8 , 4 q d c y 1 8 t                                           ",
"          d g d z a 0   g t q w g u , * : 4 g a t t w q q r r 8 6 q r t u r r q 1 6 q t                                         ",
"          E B n v s t     u 8 6 j p 8 u g k k q 8 q q 8 8 0 q q r 0 q p r 1 4 t r r q u q       w 8 q r q q a 6 : 8 6 - - - :   ",
"            b n c s         1 : f l t u a g c q 3 6 6 4 4 1 4 4 : - : 4 q 1 : y j z x z p t a 0 e g t t k y d a : : : % % % *   ",
"          g k x z p y p w 6 : * i a u i a f z q 3 4 6 8 4 3 , : : 3 6 q e w q w s b G B g a z t w M V a M b d f                 ",
"          v c k u q 4 4 3 , : 1 a q = : q h z     4             w w 0 8 q a t w a g z z z b P c l E B                           ",
"      b z h d t 7 : : : 3 4 6 r a e 8 4 q g z             z c P D S v f u d a s k p g z b                                       ",
"    S b g a u 0 * # % * * 4 p g d a d t a z             V c M B h Y ( v h u a z b                                               ",
"    j a p r 8 1 * *         k l g g d r l b           g b n ~ c k ~ l 6 h v b j                                                 ",
"                            g z d a q 1 g g           k g p x j t k 4 #                                                         ",
"                                                                                                                                "
};
